dummy_motion.mot																		
nRows=60																		
nColumns=19																		
name dummy_motion.mot																		
datacolumns 19																		
datarows 60																		
range 0.01 0.6																		
endheader																		
time	pelvis_tilt	pelvis_tx	pelvis_ty	hip_flexion_r	hip_adduction_r	hip_rotation_r	knee_angle_r	ankle_angle_r	hip_flexion_l	hip_adduction_l	hip_rotation_l	knee_angle_l	ankle_angle_l	lumbar_extension	lumbar_bending	lumbar_rotation	subtalar_angle_r	subtalar_angle_l
0.01	0	0	0	89.5971984	-3.826533866	9.21163969	-92.67490075	30.61523652	89.5971984	-3.826533866	9.21163969	-92.67490075	30.61523652	-38.55866061	-5.73980081	13.81745956	28.32513178	28.32513178
0.02	0	0	0	21.87638426	-29.91042731	9.942079703	-47.78793369	-10.77565961	21.87638426	-29.91042731	9.942079703	-47.78793369	-10.77565961	77.62482954	-44.86564106	14.91311958	36.52127434	36.52127434
0.03	0	0	0	-64.89486587	-16.83132949	0.206065013	-107.4577608	-17.79694265	-64.89486587	-16.83132949	0.206065013	-107.4577608	-17.79694265	53.97331099	-25.24699428	0.309097521	-33.57118653	-33.57118653
0.04	0	0	0	-38.32815126	-6.714610866	-28.11409683	-15.58677792	33.23928075	-38.32815126	-6.714610866	-28.11409683	-15.58677792	33.23928075	-30.40654758	-10.07191632	-42.17114533	37.20382705	37.20382705
0.05	0	0	0	29.62624503	13.46123915	15.80071872	-108.6070322	22.78228857	29.62624503	13.46123915	15.80071872	-108.6070322	22.78228857	42.73551188	20.19185877	23.70107814	11.91233216	11.91233216
0.06	0	0	0	88.69656658	16.02610969	17.21047032	-81.57888089	-33.97965225	88.69656658	16.02610969	17.21047032	-81.57888089	-33.97965225	12.13917912	24.03916458	25.81570554	-36.22136355	-36.22136355
0.07	0	0	0	-48.30717561	-15.5586864	19.43565533	-53.38935336	-10.52398507	-48.30717561	-15.5586864	19.43565533	-53.38935336	-10.52398507	-87.10854009	-23.33802965	29.15348306	-19.9351603	-19.9351603
0.08	0	0	0	19.58543991	-27.87127491	-7.029236149	-40.10298294	34.52648316	19.58543991	-27.87127491	-7.029236149	-40.10298294	34.52648316	-13.40738014	-41.80691245	-10.54385424	4.219336728	4.219336728
0.09	0	0	0	72.09436981	27.13796116	-8.783572811	-117.4021995	2.414003986	72.09436981	27.13796116	-8.783572811	-117.4021995	2.414003986	-84.71188187	40.70694182	-13.17535924	41.17561519	41.17561519
0.1	0	0	0	-40.17759694	1.829052599	-10.16890424	-93.68003154	38.11898301	-40.17759694	1.829052599	-10.16890424	-93.68003154	38.11898301	51.15179904	2.743578904	-15.25335639	41.83996817	41.83996817
0.11	0	0	0	-18.69313212	-20.37481509	12.14701038	-56.82175911	28.57833491	-18.69313212	-20.37481509	12.14701038	-56.82175911	28.57833491	86.54667108	-30.5622227	18.22051561	-30.81482265	-30.81482265
0.12	0	0	0	-61.33991736	-8.234813388	-6.966333215	9.694928425	-13.71612197	-61.33991736	-8.234813388	-6.966333215	9.694928425	-13.71612197	34.18995476	-12.35222011	-10.44949984	42.35335036	42.35335036
0.13	0	0	0	-34.41627548	-13.34317919	-28.13187711	-91.27541224	-23.23823897	-34.41627548	-13.34317919	-28.13187711	-91.27541224	-23.23823897	50.34336815	-20.01476882	-42.19781575	41.14502534	41.14502534
0.14	0	0	0	24.67037623	4.842222607	-2.601467453	-112.8984676	-49.37096538	24.67037623	4.842222607	-2.601467453	-112.8984676	-49.37096538	17.63613185	7.263333926	-3.902201188	-1.316191615	-1.316191615
0.15	0	0	0	0.287582792	8.451955259	-13.23508698	-92.23460926	33.48109595	0.287582792	8.451955259	-13.23508698	-92.23460926	33.48109595	-38.77029697	12.67793291	-19.85263051	27.0252422	27.0252422
0.16	0	0	0	12.7047425	-22.86678189	-9.823279775	-88.4402176	28.32402669	12.7047425	-22.86678189	-9.823279775	-88.4402176	28.32402669	44.32586716	-34.30017291	-14.73491969	-32.23022952	-32.23022952
0.17	0	0	0	-20.41263232	-28.12246094	-26.86896193	-86.71939022	39.55518702	-20.41263232	-28.12246094	-26.86896193	-86.71939022	39.55518702	34.89736466	-42.1836915	-40.30344298	-7.041484564	-7.041484564
0.18	0	0	0	-15.48692801	-1.149946919	2.399133452	-61.0046832	-18.78490231	-15.48692801	-1.149946919	2.399133452	-61.0046832	-18.78490231	-10.34583347	-1.724920381	3.598700185	37.41619727	37.41619727
0.19	0	0	0	26.23773082	-20.75380189	-7.14380221	-107.0725533	2.91962256	26.23773082	-20.75380189	-7.14380221	-107.0725533	2.91962256	-14.55690456	-31.1307029	-10.71570334	26.29865966	26.29865966
0.2	0	0	0	-21.29164726	25.59602673	29.90638092	-100.3737854	38.16248574	-21.29164726	25.59602673	29.90638092	-100.3737854	38.16248574	-62.86115255	38.39404017	44.85957148	41.35431838	41.35431838
0.21	0	0	0	48.26672531	-5.266266461	1.777188224	-78.173233	-38.78060507	48.26672531	-5.266266461	1.777188224	-78.173233	-38.78060507	7.252564507	-7.899399708	2.665782342	14.01666292	14.01666292
0.22	0	0	0	80.37592188	-5.769361197	23.18636097	-44.32577414	-5.386573187	80.37592188	-5.769361197	23.18636097	-44.32577414	-5.386573187	-54.65515217	-8.654041814	34.77954153	-41.78594893	-41.78594893
0.23	0	0	0	-30.95069711	-20.80963277	18.93438406	-100.088282	-10.07526287	-30.95069711	-20.80963277	18.93438406	-100.088282	-10.07526287	44.85288098	-31.21444922	28.40157614	31.42163753	31.42163753
0.24	0	0	0	41.0766952	22.50398251	-10.51859698	-99.50151893	18.90791864	41.0766952	22.50398251	-10.51859698	-99.50151893	18.90791864	38.81884463	33.75597383	-15.77789551	39.0593923	39.0593923
0.25	0	0	0	-64.41253046	22.640134	-14.03021332	-52.94384398	-22.10369769	-64.41253046	22.640134	-14.03021332	-52.94384398	-22.10369769	36.8094679	33.96020108	-21.04532003	16.08616394	16.08616394
0.26	0	0	0	-42.6474324	-24.4293183	-13.33129304	-117.3586842	26.48713931	-42.6474324	-24.4293183	-13.33129304	-117.3586842	26.48713931	42.53172365	-36.64397753	-19.99693959	23.19661175	23.19661175
0.27	0	0	0	3.244774384	-10.04445467	15.26653323	-86.98912433	32.63296173	3.244774384	-10.04445467	15.26653323	-86.98912433	32.63296173	28.20368612	-15.06668204	22.89979989	21.88192213	21.88192213
0.28	0	0	0	-53.3043389	11.60951198	28.73550988	-33.45651594	-31.79119614	-53.3043389	11.60951198	28.73550988	-33.45651594	-31.79119614	70.39730658	17.41426801	43.1032649	-9.699568242	-9.699568242
0.29	0	0	0	83.61713741	-19.74625395	8.547603724	-85.31001975	-21.67950524	83.61713741	-19.74625395	8.547603724	-85.31001975	-21.67950524	-1.605688219	-29.61938098	12.82140561	13.99301012	13.99301012
0.3	0	0	0	-54.75860297	-9.244650251	21.13453045	7.878251764	34.84910619	-54.75860297	-9.244650251	21.13453045	7.878251764	34.84910619	-28.48010266	-13.8669754	31.70179574	-29.5931981	-29.5931981
0.31	0	0	0	11.5303553	-8.095741977	21.31436746	-65.25810036	-40.57316918	11.5303553	-8.095741977	21.31436746	-65.25810036	-40.57316918	83.28757293	-12.14361299	31.97155125	18.54414792	18.54414792
0.32	0	0	0	64.08404937	-9.500380301	3.531500006	-45.87923252	23.15763904	64.08404937	-9.500380301	3.531500006	-45.87923252	23.15763904	-67.51002236	-14.25057048	5.29725002	-42.13504383	-42.13504383
0.33	0	0	0	71.22509079	24.92326273	-14.8146304	-12.3460754	32.45983793	71.22509079	24.92326273	-14.8146304	-12.3460754	32.45983793	-52.44979314	37.38489418	-22.22194565	-20.07693135	-20.07693135
0.34	0	0	0	80.22396064	-19.72717537	-7.402139864	-117.374859	-25.27540505	80.22396064	-19.72717537	-7.402139864	-117.374859	-25.27540505	-62.10536932	-29.59076311	-11.10320982	-40.84457484	-40.84457484
0.35	0	0	0	-41.98335841	-18.39759534	2.702585144	-21.37165108	38.38543277	-41.98335841	-18.39759534	2.702585144	-21.37165108	38.38543277	55.36887592	-27.59639306	4.053877725	-36.25813969	-36.25813969
0.36	0	0	0	70.20058987	27.97269774	-27.31089021	-110.0202874	27.97251463	70.20058987	27.97269774	-27.31089021	-110.0202874	27.97251463	-77.87401681	41.9590467	-40.9663354	29.11120455	29.11120455
0.37	0	0	0	76.23643254	-2.33763274	-9.918469622	-23.2606872	-42.19310509	76.23643254	-2.33763274	-9.918469622	-23.2606872	-42.19310509	-1.691428016	-3.506449117	-14.87770446	17.53457607	17.53457607
0.38	0	0	0	-53.79665855	14.09269693	18.15482014	-48.88736874	35.85473352	-53.79665855	14.09269693	18.15482014	-48.88736874	35.85473352	17.71527163	21.13904543	27.23223026	-16.46104679	-16.46104679
0.39	0	0	0	-63.98641639	-24.79227914	-0.386119092	-47.95166441	-29.50019502	-63.98641639	-24.79227914	-0.386119092	-47.95166441	-29.50019502	-24.29636887	-37.18841878	-0.579178639	40.5199844	40.5199844
0.4	0	0	0	-52.07926479	-17.07987233	-14.47198524	-23.49792276	23.2669068	-52.07926479	-17.07987233	-14.47198524	-23.49792276	23.2669068	33.94060406	-25.61980854	-21.7079779	-41.89985275	-41.89985275
0.41	0	0	0	-69.56054791	4.234194734	-12.91926336	-92.32950758	-28.41879771	-69.56054791	4.234194734	-12.91926336	-92.32950758	-28.41879771	64.24328629	6.351292114	-19.37889508	-5.513007631	-5.513007631
0.42	0	0	0	12.52481783	-10.5860351	19.01540041	-76.37323752	-1.864685899	12.52481783	-10.5860351	19.01540041	-76.37323752	-1.864685899	72.11492444	-15.87905268	28.52310067	-10.65973886	-10.65973886
0.43	0	0	0	-43.13551354	27.43547049	5.48057733	9.946922646	7.487610182	-43.13551354	27.43547049	5.48057733	9.946922646	7.487610182	81.26919793	41.15320581	8.220866012	23.89651093	23.89651093
0.44	0	0	0	54.63910567	5.423609899	-6.368039789	-104.6137156	18.55786547	54.63910567	5.423609899	-6.368039789	-104.6137156	18.55786547	72.00842846	8.135414865	-9.552059703	26.5679911	26.5679911
0.45	0	0	0	64.70640852	-22.79149128	-23.34542994	-25.6172689	-28.15467011	64.70640852	-22.79149128	-23.34542994	-25.6172689	-28.15467011	-88.82335339	-34.18723699	-35.01814499	-28.18146559	-28.18146559
0.46	0	0	0	-61.0101077	-13.39689621	29.78923109	-33.81116585	-38.01708317	-61.0101077	-13.39689621	29.78923109	-33.81116585	-38.01708317	-82.45220359	-20.09534435	44.68384672	-0.921204379	-0.921204379
0.47	0	0	0	6.56394414	-21.26009433	-29.68198367	-5.565877903	1.182686526	6.56394414	-21.26009433	-29.68198367	-5.565877903	1.182686526	66.76059206	-31.89014155	-44.5229756	-4.897241936	-4.897241936
0.48	0	0	0	62.98540922	13.14838508	-14.9086459	-52.15943349	-48.99701866	62.98540922	13.14838508	-14.9086459	-52.15943349	-48.99701866	-10.00789532	19.72257767	-22.36296889	13.16817091	13.16817091
0.49	0	0	0	24.97861956	15.30873222	10.22121439	-103.9267414	-25.97485876	24.97861956	15.30873222	10.22121439	-103.9267414	-25.97485876	-10.34270417	22.96309838	15.33182162	18.84283478	18.84283478
0.5	0	0	0	79.9570577	20.87556896	7.27139363	-111.0841374	-38.43637169	79.9570577	20.87556896	7.27139363	-111.0841374	-38.43637169	-30.49224831	31.31335351	10.90709047	22.92180138	22.92180138
0.51	0	0	0	41.47856666	-20.34740586	-4.680913545	-75.99894696	3.680211826	41.47856666	-20.34740586	-4.680913545	-75.99894696	3.680211826	79.14115928	-30.52110885	-7.021370331	-20.15774307	-20.15774307
0.52	0	0	0	35.15581216	-4.38418288	7.816451798	-53.32997273	11.60731072	35.15581216	-4.38418288	7.816451798	-53.32997273	11.60731072	38.31142729	-6.576274334	11.72467772	16.17324092	16.17324092
0.53	0	0	0	-3.194685762	18.09943453	-27.63933573	-76.65855252	35.19625919	-3.194685762	18.09943453	-27.63933573	-76.65855252	35.19625919	79.00326399	27.14915185	-41.45900369	13.95882036	13.95882036
0.54	0	0	0	24.84568867	-17.61692811	-3.242501794	1.504219525	-48.17865349	24.84568867	-17.61692811	-3.242501794	1.504219525	-48.17865349	5.572069275	-26.42539222	-4.863752701	-30.36494383	-30.36494383
0.55	0	0	0	54.4247112	9.416246319	-10.30837821	-32.777043	19.80596619	54.4247112	9.416246319	-10.30837821	-32.777043	19.80596619	-86.07546346	14.12436951	-15.46256735	-34.29020866	-34.29020866
0.56	0	0	0	-6.445721824	-12.59046619	17.84997361	-84.89359105	-26.73415006	-6.445721824	-12.59046619	17.84997361	-84.89359105	-26.73415006	57.67039473	-18.88569933	26.77496046	-0.147235322	-0.147235322
0.57	0	0	0	12.63058754	11.14813097	21.33615891	-50.04303983	-11.17942566	12.63058754	11.14813097	21.33615891	-50.04303983	-11.17942566	-38.25070968	16.72219649	32.00423843	41.37695627	41.37695627
0.58	0	0	0	-65.40665779	-11.47247085	25.4008217	-112.2200881	4.660921706	-65.40665779	-11.47247085	25.4008217	-112.2200881	4.660921706	66.12834004	-17.20870631	38.10123263	-14.3652846	-14.3652846
0.59	0	0	0	68.82690969	26.56201232	-12.24336886	-95.01491633	-41.6932973	68.82690969	26.56201232	-12.24336886	-95.01491633	-41.6932973	64.83794633	39.84301855	-18.36505333	7.674097588	7.674097588
0.6	0	0	0	-48.99420485	-15.6653805	24.15533932	-64.0497272	-17.37950245	-48.99420485	-15.6653805	24.15533932	-64.0497272	-17.37950245	9.113826353	-23.4980708	36.23300905	-24.85692545	-24.85692545
